<svg xmlns="http://www.w3.org/2000/svg" xmlns:xlink="http://www.w3.org/1999/xlink" width="48" height="48" viewBox="0 0 48 48"><defs><path id="a" d="M13.7879446,16.9230783 L11.1897323,19.7061333 L10.6339292,20.3076958 L6.70982123,20.3076958 C6.80357169,20.5787267 6.85714246,20.862985 6.85714246,21.1538433 C6.85714246,22.5552892 5.70535754,23.6923042 4.28571415,23.6923042 C3.99107169,23.6923042 3.70312523,23.6394217 3.42857169,23.5402658 L3.42857169,23.5402658 L3.42857169,37.3828125 C3.70312523,37.2836539 3.99107169,37.2307696 4.28571415,37.2307696 C5.70535754,37.2307696 6.85714246,38.3677882 6.85714246,39.7692304 C6.85714246,40.0600961 6.80357169,40.3443507 6.70982123,40.6153843 L6.70982123,40.6153843 L22.2857169,40.6153843 L22.2857169,38.9230783 L25.7142831,38.9230783 L25.7142831,40.6153843 L41.2968738,40.6153843 C41.1964246,40.3443507 41.1428585,40.0600961 41.1428585,39.7692304 C41.1428585,38.3677882 42.2946462,37.2307696 43.7142831,37.2307696 C44.0089292,37.2307696 44.2968738,37.2836539 44.5714246,37.3828125 L44.5714246,37.3828125 L44.5714246,23.5402658 C44.2968738,23.6394217 44.0089292,23.6923042 43.7142831,23.6923042 C42.2946462,23.6923042 41.1428585,22.5552892 41.1428585,21.1538433 C41.1428585,20.862985 41.1964246,20.5787267 41.2968738,20.3076958 L41.2968738,20.3076958 L25.7142831,20.3076958 L25.7142831,22 L23.1093785,22 L27.8437477,16.9230783 L48,16.9230783 L48,44 L0,44 L0,16.9230783 L13.7879446,16.9230783 Z M25.7142831,23.92368 C28.7008892,24.6574533 30.8571415,27.2554058 30.8571415,30.4615392 C30.8571415,33.6676725 28.7008892,36.265625 25.7142831,36.9993992 L25.7142831,36.9993992 L25.7142831,35.5384617 L22.2857169,35.5384617 L22.2857169,36.9993992 C19.2991108,36.265625 17.1428585,33.6676725 17.1428585,30.4615392 C17.1428585,29.5030083 17.3571415,28.6105783 17.7053538,27.7908675 L17.7053538,27.7908675 L20.7589292,24.5186333 C21.2410708,24.26743 21.7433077,24.0558908 22.2857169,23.92368 L22.2857169,23.92368 L22.2857169,25.3846175 L25.7142831,25.3846175 L25.7142831,23.92368 Z M10.2857169,27.9230783 C11.7053538,27.9230783 12.8571415,29.0600933 12.8571415,30.4615392 C12.8571415,31.862985 11.7053538,33 10.2857169,33 C8.86607169,33 7.71428585,31.862985 7.71428585,30.4615392 C7.71428585,29.0600933 8.86607169,27.9230783 10.2857169,27.9230783 Z M37.7142831,27.9230783 C39.1339292,27.9230783 40.2857169,29.0600933 40.2857169,30.4615392 C40.2857169,31.862985 39.1339292,33 37.7142831,33 C36.2946462,33 35.1428585,31.862985 35.1428585,30.4615392 C35.1428585,29.0600933 36.2946462,27.9230783 37.7142831,27.9230783 Z M25.7142831,28.769235 L22.2857169,28.769235 L22.2857169,32.1538433 L25.7142831,32.1538433 L25.7142831,28.769235 Z M30.8571415,0 C33.7700862,0 36,2.20132 36,5.07692167 C36,7.95252333 33.7700862,10.1538433 30.8571415,10.1538433 C30.34152,10.1538433 30,10.1538433 29.65848,9.98196833 L29.65848,9.98196833 L13.7142831,27.0769217 L13.7142831,22 L21.5959846,13.5384608 L18.34152,10.1538433 L17.1428585,10.1538433 C14.2299138,10.1538433 12,7.95252333 12,5.07692167 C12,2.20132 14.2299138,0 17.1428585,0 C20.0558031,0 22.2857169,2.20132 22.2857169,5.07692167 C22.2857169,6.26021917 21.9441969,7.27824167 21.2611569,7.95252333 L21.2611569,7.95252333 L24,10.828125 L26.5714246,7.95252333 C26.0558031,7.10636667 25.7142831,6.09495333 25.7142831,5.07692167 C25.7142831,2.20132 27.9441969,0 30.8571415,0 Z M17.1428585,3.3846175 C16.1116062,3.3846175 15.4285754,4.05889 15.4285754,5.07692167 C15.4285754,6.09495333 16.1116062,6.769235 17.1428585,6.769235 C18.1741108,6.769235 18.8571415,6.09495333 18.8571415,5.07692167 C18.8571415,4.05889 18.1741108,3.3846175 17.1428585,3.3846175 Z M30.8571415,3.3846175 C29.8258892,3.3846175 29.1428585,4.05889 29.1428585,5.07692167 C29.1428585,6.09495333 29.8258892,6.769235 30.8571415,6.769235 C31.8883938,6.769235 32.5714246,6.09495333 32.5714246,5.07692167 C32.5714246,4.05889 31.8883938,3.3846175 30.8571415,3.3846175 Z"/></defs><use xlink:href="#a" fill="#53B1A3" fill-rule="evenodd" transform="translate(0 2)"/></svg>