<svg xmlns="http://www.w3.org/2000/svg" width="48" height="48" viewBox="0 0 48 48"><path fill="#53B1A3" fill-rule="evenodd" d="M24,0 C37.2331754,0 48,10.7668246 48,24 C48,37.2331754 37.2331754,48 24,48 C10.7668246,48 0,37.2331754 0,24 C0,10.7668246 10.7668246,0 24,0 Z M24,3.69230769 C12.7644185,3.69230769 3.69230769,12.7644185 3.69230769,24 C3.69230769,35.2355815 12.7644185,44.3076923 24,44.3076923 C35.2355815,44.3076923 44.3076923,35.2355815 44.3076923,24 C44.3076923,12.7644185 35.2355815,3.69230769 24,3.69230769 Z M35.5961538,15.2884615 L38.25,17.9423077 L23.4807692,32.7115385 L22.1538462,33.9807692 L20.8269231,32.7115385 L11.5961538,23.4807692 L14.25,20.8269231 L22.1538462,28.7307692 L35.5961538,15.2884615 Z"/></svg>