<svg xmlns="http://www.w3.org/2000/svg" width="48" height="48" viewBox="0 0 48 48"><path fill="#53B1A3" fill-rule="evenodd" d="M24,0 C37.25484,0 48,10.74516 48,24 L48,24 L47.9967847,24.3968841 C47.7848458,37.4686687 37.1222916,48 24,48 C10.74516,48 0,37.25484 0,24 C0,10.74516 10.74516,0 24,0 Z M24.0000039,4.36364307 C13.1551384,4.36364307 4.36364031,13.1551384 4.36364031,24.0000068 L4.36364031,24.0000068 L4.36627102,24.3247231 C4.53967561,35.0198124 13.2635871,43.6363704 24.0000039,43.6363704 C34.8448616,43.6363704 43.6363676,34.8448616 43.6363676,24.0000068 C43.6363676,13.1551384 34.8448616,4.36364307 24.0000039,4.36364307 Z M26.1818359,10.90908 L26.1818359,13.5054369 L26.2274031,13.5198277 C28.7332523,14.4265293 30.5275754,16.8195969 30.5454369,19.6363107 L30.5454369,19.6363107 L26.1817939,19.6363107 L26.1767604,19.4869323 C26.0999954,18.3516382 25.1547592,17.4545169 24,17.4545169 C22.7950339,17.4545169 21.8181995,18.4313446 21.8181995,19.6363107 C21.8181995,20.8412769 22.7950339,21.8181139 24,21.8181139 L24,21.8181139 C27.5681261,21.8789539 30.4372984,24.7857693 30.4372984,28.3627016 C30.4372984,31.1551384 28.6886677,33.5391139 26.1817939,34.4945169 L26.1817939,34.4945169 L26.1817939,37.0908739 L21.81816,37.0908739 L21.81816,34.4945169 L21.7725969,34.4801261 C19.2667477,33.5734246 17.4724246,31.1803569 17.4545631,28.3636431 L17.4545631,28.3636431 L21.8181995,28.3636431 L21.8232396,28.5130214 C21.9000046,29.6483157 22.8452408,30.5454436 24,30.5454436 C25.2049661,30.5454436 26.1817939,29.5686093 26.1817939,28.3636431 C26.1817939,27.1586677 25.2049661,26.18184 24,26.18184 L24,26.18184 C20.4318739,26.121 17.5627016,23.2141846 17.5627016,19.6372523 C17.5627016,16.8448154 19.3113323,14.46084 21.8181995,13.5054369 L21.8181995,13.5054369 L21.8181995,10.90908 L26.1818359,10.90908 Z"/></svg>