<svg xmlns="http://www.w3.org/2000/svg" width="48" height="48" viewBox="0 0 48 48"><path fill="#53B1A3" fill-rule="evenodd" d="M14,0 L14,2 L34,2 L34,0 L38,0 L38,2 L46,2 L46,48 L2,48 L2,2 L10,2 L10,0 L14,0 Z M42.0000004,14 L6.0000004,14 L6.0000004,44 L42.0000004,44 L42.0000004,14 Z M25.9999976,36 L25.9999976,40 L21.9999976,40 L21.9999976,36 L25.9999976,36 Z M25.9999976,18 L25.9999976,32 L21.9999976,32 L21.9999976,18 L25.9999976,18 Z M10.0000004,6 L6.0000004,6 L6.0000004,10 L42.0000004,10 L42.0000004,6 L38.0000004,6 L38.0000004,8 L34.0000004,8 L34.0000004,6 L14.0000004,6 L14.0000004,8 L10.0000004,8 L10.0000004,6 Z"/></svg>