<?xml version="1.0" encoding="UTF-8"?>
<svg width="48px" height="48px" viewBox="0 0 48 48" version="1.1" xmlns="http://www.w3.org/2000/svg" xmlns:xlink="http://www.w3.org/1999/xlink">
    <title>Group 42</title>
    <g id="Wellpoint" stroke="none" stroke-width="1" fill="none" fill-rule="evenodd">
        <g id="Group-42" fill="#949494" fill-rule="nonzero">
            <path d="M24,0 C10.765626,0 0,10.765626 0,24 C0,37.234376 10.765626,48 24,48 C37.234376,48 48,37.234376 48,24 C48,10.765626 37.234376,0 24,0 Z M24,4 C35.070312,4 44,12.929688 44,24 C44,35.070312 35.070312,44 24,44 C12.929688,44 4,35.070312 4,24 C4,12.929688 12.929688,4 24,4 Z M23.1875,14 L22.875,15.5625 C22.875,15.5625 22.546876,16.710938 21.75,17.875 C20.953126,19.039062 19.960938,20 18,20 L18,24 C20.75,24 22.640626,22.648438 24,21.1875 L24,34 L28,34 L28,14 L23.1875,14 Z" id="Shape-Copy-2"></path>
        </g>
    </g>
</svg>