<?xml version="1.0" encoding="UTF-8"?>
<svg width="48px" height="48px" viewBox="0 0 48 48" version="1.1" xmlns="http://www.w3.org/2000/svg" xmlns:xlink="http://www.w3.org/1999/xlink">
    <title>Group 43</title>
    <g id="Wellpoint" stroke="none" stroke-width="1" fill="none" fill-rule="evenodd">
        <g id="Group-43" fill="#949494" fill-rule="nonzero">
            <path d="M24,0 C10.765626,0 0,10.765626 0,24 C0,37.234376 10.765626,48 24,48 C37.234376,48 48,37.234376 48,24 C48,10.765626 37.234376,0 24,0 Z M24,4 C35.070312,4 44,12.929688 44,24 C44,35.070312 35.070312,44 24,44 C12.929688,44 4,35.070312 4,24 C4,12.929688 12.929688,4 24,4 Z M22.8125,14 C18.96875,14 15.8125,17.15625 15.8125,21 L15.8125,22 L19.8125,22 L19.8125,21 C19.8125,19.25 21.0625,18 22.8125,18 L25,18 C26.75,18 28,19.25 28,21 C28,21.914062 27.296876,22.960938 26.125,23.6875 C23.65625,25.203126 21.492188,26.171876 19.6875,27.1875 C18.78125,27.695312 17.953126,28.179688 17.25,28.9375 C16.546876,29.695312 16,30.835938 16,32 L16,34 L32,34 L32,30 L22.875,30 C24.34375,29.242188 26.039062,28.484376 28.25,27.125 C30.28125,25.851562 32,23.6875 32,21 C32,17.15625 28.84375,14 25,14 L22.8125,14 Z" id="Shape-Copy"></path>
        </g>
    </g>
</svg>