<svg xmlns="http://www.w3.org/2000/svg" width="40" height="40" viewBox="0 0 40 40">
  <path fill="#FFF" d="M34,2 C36.21,2 38,3.79 38,6 L38,6 L38,34 C38,36.21 36.21,38 34,38 L34,38 L6,38 C3.79,38 2,36.21 2,34 L2,34 L2,6 C2,3.79 3.79,2 6,2 L6,2 Z M34,4 L6,4 C4.89457,4 4,4.89457 4,6 L4,34 C4,35.1054 4.89457,36 6,36 L21.241,36 L21.2419,23.6422 L16.5559,23.6422 L16.5559,18.1922 L21.2419,18.1922 L21.2419,14.1822 C21.2419,9.53416 24.0839,7.000002 28.2319,7.000002 C29.6299,6.99616 31.0259,7.06816 32.4159,7.21016 L32.4159,7.21016 L32.4159,12.0702 L29.5599,12.0702 C27.2999,12.0702 26.8599,13.1382 26.8599,14.7142 L26.8599,14.7142 L26.8599,18.1842 L32.2599,18.1842 L31.5579,23.6342 L26.8279,23.6342 L26.827,36 L34,36 C35.1054,36 36,35.1054 36,34 L36,6 C36,4.89457 35.1054,4 34,4 Z"/>
</svg>
