<svg xmlns="http://www.w3.org/2000/svg" width="48" height="48" viewBox="0 0 48 48"><path fill="#949494" d="M26,0 C28.1875011,0 30,1.74 30,3.84 L30,3.84 L42,3.84 L42,48 L6,48 L6,3.84 L18,3.84 C18,1.74 19.8124989,0 22,0 L22,0 L26,0 Z M17.9999998,7.68 L9.99999979,7.68 L9.99999979,44.16 L37.9999998,44.16 L37.9999998,7.68 L29.9999998,7.68 L29.9999998,11.52 L17.9999998,11.52 L17.9999998,7.68 Z M23.9999996,15.36 C28.3984421,15.36 31.9999996,18.8174954 31.9999996,23.04 C31.9999996,25.1774954 31.0468768,27.105 29.5625021,28.5 C32.2265589,30.2324954 33.9999996,33.18 33.9999996,36.48 L33.9999996,36.48 L29.9999996,36.48 C29.9999996,33.2774954 27.33594,30.72 23.9999996,30.72 C20.66406,30.72 17.9999996,33.2774954 17.9999996,36.48 L17.9999996,36.48 L13.9999996,36.48 C13.9999996,33.18 15.7734411,30.2324954 18.4374979,28.5 C16.9531232,27.105 15.9999996,25.1774954 15.9999996,23.04 C15.9999996,18.8174954 19.6015579,15.36 23.9999996,15.36 Z M24.0000021,19.2 C21.7656221,19.2 20.0000021,20.895 20.0000021,23.04 C20.0000021,25.185 21.7656221,26.88 24.0000021,26.88 C26.2343779,26.88 28.0000021,25.185 28.0000021,23.04 C28.0000021,20.895 26.2343779,19.2 24.0000021,19.2 Z M26.0000011,3.84 L22.0000011,3.84 L22.0000011,7.68 L26.0000011,7.68 L26.0000011,3.84 Z"/></svg>