<svg xmlns="http://www.w3.org/2000/svg" xmlns:xlink="http://www.w3.org/1999/xlink" width="48" height="48" viewBox="0 0 48 48"><defs><path id="a" d="M10.2222212,0 L10.2222212,1.71428308 L27.2592596,1.71428308 L27.2592596,0 L30.6666636,0 L30.6666636,1.71428308 L37.4814808,1.71428308 L37.4814808,21.5892831 C42.4528388,23.6383938 46,28.56696 46,34.2857169 C46,41.8258929 39.8640048,48 32.3703748,48 C26.6869184,48 21.788774,44.430804 19.7523172,39.4285717 L19.7523172,39.4285717 L0,39.4285717 L0,1.71428308 L6.81481444,1.71428308 L6.81481444,0 L10.2222212,0 Z M32.3703748,24 C26.7468196,24 22.1481444,28.6272277 22.1481444,34.2857169 C22.1481444,39.944196 26.7468196,44.5714283 32.3703748,44.5714283 C37.9939208,44.5714283 42.592596,39.944196 42.592596,34.2857169 C42.592596,28.6272277 37.9939208,24 32.3703748,24 Z M34.0740768,27.4285754 L34.0740768,36.6964246 L30.1342596,40.6071425 L27.7916636,38.25 L30.6666636,35.3035754 L30.6666636,27.4285754 L34.0740768,27.4285754 Z M34.0740768,12 L3.40740768,12 L3.40740768,36 L18.8472212,36 C18.7740168,35.4308031 18.7407404,34.8683077 18.7407404,34.2857169 C18.7407404,26.7455354 24.8767356,20.5714246 32.3703748,20.5714246 C32.9493676,20.5714246 33.5083872,20.6049138 34.0740768,20.6785754 L34.0740768,20.6785754 L34.0740768,12 Z M6.81481444,5.14285846 L3.40740768,5.14285846 L3.40740768,8.57142462 L34.0740768,8.57142462 L34.0740768,5.14285846 L30.6666636,5.14285846 L30.6666636,6.85714154 L27.2592596,6.85714154 L27.2592596,5.14285846 L10.2222212,5.14285846 L10.2222212,6.85714154 L6.81481444,6.85714154 L6.81481444,5.14285846 Z"/></defs><use xlink:href="#a" fill="#949494" fill-rule="evenodd"/></svg>