<svg xmlns="http://www.w3.org/2000/svg" xmlns:xlink="http://www.w3.org/1999/xlink" width="48" height="48" viewBox="0 0 48 48"><defs><path id="a" d="M24,0 C37.25484,0 48,10.74516 48,24 L48,24 L47.9967847,24.3968841 C47.7848458,37.4686687 37.1222916,48 24,48 C10.74516,48 0,37.25484 0,24 C0,10.74516 10.74516,0 24,0 Z M24,4.36364308 C13.1551385,4.36364308 4.36364031,13.1551385 4.36364031,24 L4.36364031,24 L4.36627102,24.3247231 C4.53967561,35.0198124 13.2635871,43.6363597 24,43.6363597 C34.8448615,43.6363597 43.6363569,34.8448615 43.6363569,24 C43.6363569,13.1551385 34.8448615,4.36364308 24,4.36364308 Z M26.18184,10.90908 L26.18184,13.5054369 L26.2274031,13.5198277 C28.7332523,14.4265292 30.5275754,16.8195969 30.5454369,19.6363108 L30.5454369,19.6363108 L26.1817938,19.6363108 L26.1767604,19.4869324 C26.0999955,18.3516382 25.1547592,17.4545169 24,17.4545169 C22.7950338,17.4545169 21.8182062,18.4313446 21.8182062,19.6363108 C21.8182062,20.8412769 22.7950338,21.8181138 24,21.8181138 L24,21.8181138 C27.5681262,21.8789538 30.4372985,24.7857692 30.4372985,28.3627015 C30.4372985,31.1551385 28.6886677,33.5391138 26.1817938,34.4945169 L26.1817938,34.4945169 L26.1817938,37.0908738 L21.81816,37.0908738 L21.81816,34.4945169 L21.7725969,34.4801262 C19.2667477,33.5734246 17.4724246,31.1803569 17.4545631,28.3636431 L17.4545631,28.3636431 L21.8182062,28.3636431 L21.8232396,28.5130215 C21.9000045,29.6483157 22.8452408,30.5454369 24,30.5454369 C25.2049662,30.5454369 26.1817938,29.5686092 26.1817938,28.3636431 C26.1817938,27.1586677 25.2049662,26.18184 24,26.18184 L24,26.18184 C20.4318738,26.121 17.5627015,23.2141846 17.5627015,19.6372523 C17.5627015,16.8448154 19.3113323,14.46084 21.8182062,13.5054369 L21.8182062,13.5054369 L21.8182062,10.90908 L26.18184,10.90908 Z"/></defs><use xlink:href="#a" fill="#949494"/></svg>