<svg xmlns="http://www.w3.org/2000/svg" xmlns:xlink="http://www.w3.org/1999/xlink" width="40" height="40" viewBox="0 0 40 40">
  <defs>
    <path id="sydney-a" d="M19.1528,4.0394 L14.5807,4.43 C13.0462,5.7842 10.8985,6.6258 8.5205,6.6258 C4.2762,6.6258 0.7641,3.9452 0.1658,0.4539 C2.1126,2.5665 5.13,3.9246 8.5205,3.9246 C11.9109,3.9246 14.9283,2.5665 16.8751,0.4539 C16.783,0.9911 16.4975,1.7332 16.2753,2.2253 L19.1528,4.0394 Z"/>
    <linearGradient id="sydney-b" x1="100.001%" x2="100.001%" y1="100.002%" y2="-.002%">
      <stop offset="0%" stop-color="#3DE2F6"/>
      <stop offset="100%" stop-color="#FFF"/>
    </linearGradient>
  </defs>
  <g fill="none" fill-rule="evenodd" transform="translate(1 1)">
    <rect width="36" height="36" x="1" y="1" fill="#FFF" fill-rule="nonzero" rx="4"/>
    <rect width="37" height="37" x=".5" y=".5" stroke="#000" stroke-opacity=".08" rx="4.5"/>
    <path fill="#2453A6" d="M18.989,7.75 C12.7418,7.75 7.6775,12.731 7.6775,18.8756 C7.6775,20.7397 8.146,22.4953 8.9698,24.0387 L5.8138,26.0143 L5.8141,26.0154 C5.6256,26.1345 5.5,26.3414 5.5,26.578 C5.5,26.9225 5.7654,27.2029 6.1054,27.2403 L6.1067,27.2458 L12.084,27.685 C13.9946,29.1358 16.3884,30.0012 18.989,30.0012 C18.9927,30.0012 18.9964,30.0012 19,30.0012 C19.0038,30.0012 19.0074,30.0012 19.0111,30.0012 C21.6116,30.0012 24.0055,29.1358 25.9161,27.685 L31.8934,27.2458 L31.8947,27.2403 C32.2347,27.2029 32.5,26.9225 32.5,26.578 C32.5,26.3414 32.3745,26.1345 32.1859,26.0154 L32.1862,26.0143 L29.0163,24.0229 C29.8349,22.4834 30.3004,20.7334 30.3004,18.8756 C30.3004,12.731 25.2362,7.75 18.989,7.75 Z"/>
    <path fill="#FFF" d="M19.3927,28.5877 C19.4454,28.5831 19.4972,28.5761 19.5495,28.5707 C19.6399,28.5613 19.7306,28.5524 19.8201,28.5407 C19.8735,28.5335 19.926,28.5242 19.9792,28.5163 C20.0666,28.5033 20.1542,28.4909 20.2406,28.4756 C20.2933,28.4662 20.3451,28.4547 20.3974,28.4446 C20.4832,28.4279 20.5692,28.4117 20.654,28.3928 C20.7045,28.3816 20.754,28.3683 20.8041,28.3563 C20.8897,28.3358 20.9754,28.3155 21.0599,28.2929 C21.1074,28.28 21.1539,28.2655 21.201,28.2519 C21.2867,28.2274 21.3727,28.203 21.4573,28.1761 C21.5019,28.1619 21.5456,28.1462 21.5898,28.1314 C21.6756,28.1027 21.7613,28.0741 21.8456,28.0431 C21.8873,28.0279 21.928,28.0112 21.9692,27.9953 C22.055,27.9625 22.1406,27.9294 22.2248,27.8942 C22.2632,27.8781 22.3007,27.8609 22.3387,27.8443 C22.4243,27.8071 22.5097,27.7696 22.5936,27.7299 C22.6291,27.7132 22.6636,27.6954 22.6987,27.6781 C22.7839,27.6366 22.8686,27.5946 22.9518,27.5506 C22.9843,27.5335 23.0159,27.5154 23.048,27.4978 C23.1323,27.452 23.2162,27.4055 23.2985,27.3571 C23.3284,27.3394 23.3574,27.321 23.387,27.3031 C23.47,27.2529 23.5525,27.2021 23.6333,27.1494 C23.6606,27.1315 23.6873,27.113 23.7145,27.0947 C23.7959,27.0403 23.8765,26.9852 23.9555,26.9282 C23.9806,26.9102 24.0049,26.8915 24.0297,26.8733 C24.1092,26.8146 24.1878,26.7552 24.2645,26.6941 C24.2875,26.6758 24.3099,26.6571 24.3327,26.6385 C24.4097,26.5761 24.4856,26.5127 24.5598,26.4476 C24.5666,26.4418 24.5738,26.4361 24.5806,26.4303 L29.1526,26.0396 L26.2752,24.2255 C26.2776,24.2201 26.2795,24.2145 26.282,24.2091 C26.3325,24.0965 26.5038,23.7584 26.5478,23.6431 C26.5505,23.6359 26.5535,23.6288 26.5563,23.6215 C26.6986,23.2448 26.8062,22.855 26.8749,22.4541 C26.9342,22.1085 26.9659,21.7553 26.9659,21.3956 C26.9659,17.4024 23.1847,14.1653 18.5203,14.1653 C13.8559,14.1653 10.0747,17.4024 10.0747,21.3956 C10.0747,21.7553 10.1065,22.1085 10.1657,22.4541 C10.1807,22.5416 10.1989,22.6283 10.2174,22.7149 C10.2231,22.7407 10.2278,22.767 10.2338,22.7927 C10.2518,22.8718 10.2725,22.95 10.2936,23.0281 C10.3023,23.0606 10.3106,23.0934 10.3199,23.1258 C10.3412,23.2002 10.3646,23.2739 10.3887,23.3476 C10.4001,23.3825 10.4114,23.4177 10.4235,23.4525 C10.4482,23.5241 10.4745,23.595 10.5018,23.6657 C10.5155,23.7013 10.5295,23.7368 10.5439,23.7722 C10.5722,23.8417 10.6015,23.911 10.6322,23.9795 C10.6479,24.0145 10.6641,24.0492 10.6803,24.084 C10.7123,24.1522 10.745,24.2202 10.7793,24.2875 C10.7963,24.3208 10.8142,24.3538 10.8318,24.3868 C10.8679,24.4547 10.9042,24.5225 10.9427,24.5891 C10.9598,24.6188 10.9779,24.6479 10.9955,24.6773 C11.0367,24.7465 11.0781,24.8156 11.1218,24.8835 C11.1352,24.9042 11.1496,24.9245 11.1632,24.9451 C11.3257,25.1913 11.504,25.4286 11.6978,25.6558 C11.7085,25.6684 11.7186,25.6813 11.7293,25.6938 C11.7801,25.7524 11.833,25.8096 11.8856,25.8668 C11.913,25.8965 11.9398,25.9268 11.9677,25.9562 C12.0169,26.0078 12.0678,26.0583 12.1185,26.1087 C12.1522,26.1422 12.1853,26.1758 12.2196,26.2087 C12.2691,26.2561 12.3197,26.3025 12.3706,26.3486 C12.4084,26.3831 12.4463,26.4175 12.4849,26.4513 C12.5351,26.4952 12.5863,26.5385 12.6377,26.5813 C12.6792,26.6157 12.7208,26.6498 12.763,26.6835 C12.8143,26.7244 12.8661,26.7648 12.9185,26.8047 C12.9631,26.8386 13.0083,26.8719 13.0539,26.9051 C13.106,26.943 13.1584,26.9808 13.2116,27.0177 C13.2597,27.051 13.3084,27.0833 13.3572,27.1157 C13.4102,27.1507 13.4629,27.1858 13.5168,27.2198 C13.5686,27.2525 13.6215,27.2839 13.6741,27.3156 C13.7269,27.3473 13.7793,27.3796 13.833,27.4103 C13.8907,27.4433 13.9497,27.4747 14.0085,27.5066 C14.059,27.534 14.109,27.5622 14.1603,27.5888 C14.2452,27.6327 14.3318,27.6745 14.4187,27.716 C14.4762,27.7434 14.5342,27.77 14.5923,27.7963 C14.6737,27.8329 14.755,27.8694 14.8378,27.9038 C14.8859,27.9238 14.935,27.9421 14.9836,27.9613 C15.0541,27.9892 15.1246,28.0173 15.1962,28.0436 C15.2484,28.0627 15.3014,28.0804 15.354,28.0987 C15.4234,28.1228 15.4929,28.1467 15.5632,28.1693 C15.6177,28.1868 15.6729,28.2031 15.728,28.2196 C15.7981,28.2406 15.8683,28.2614 15.9392,28.2808 C15.9952,28.2962 16.0516,28.3107 16.108,28.3251 C16.1795,28.3433 16.2512,28.3608 16.3234,28.3774 C16.3804,28.3906 16.4375,28.4031 16.4949,28.4153 C16.5682,28.4308 16.6421,28.4452 16.7162,28.459 C16.7733,28.4696 16.8305,28.4802 16.888,28.4898 C16.9643,28.5026 17.0411,28.5139 17.1181,28.525 C17.1746,28.5331 17.231,28.5414 17.2878,28.5485 C17.3687,28.5587 17.4501,28.567 17.5317,28.575 C17.5854,28.5804 17.639,28.5865 17.6932,28.5911 C17.7837,28.5986 17.8751,28.6038 17.9666,28.6088 C18.0126,28.6114 18.0582,28.6151 18.1044,28.617 C18.2422,28.6228 18.3808,28.626 18.5203,28.626 C18.6676,28.626 18.814,28.6227 18.9594,28.6163 C19.0049,28.6143 19.0496,28.6101 19.0949,28.6076 C19.1944,28.6018 19.2941,28.5964 19.3927,28.5877 Z"/>
    <g transform="translate(10 22)">
      <mask id="sydney-c" fill="#fff">
        <use xlink:href="#sydney-a"/>
      </mask>
      <path fill="url(#sydney-b)" d="M19.1528,4.0394 L16.2753,2.2253 C16.4975,1.7332 16.783,0.9911 16.8751,0.4539 C14.9283,2.5665 11.9109,3.9246 8.5205,3.9246 C5.13,3.9246 2.1126,2.5665 0.1658,0.4539 C0.7641,3.9452 4.2762,6.6258 8.5205,6.6258 C10.8985,6.6258 13.0462,5.7842 14.5807,4.43 L19.1528,4.0394 Z" mask="url(#sydney-c)"/>
    </g>
    <path fill="#1755A8" d="M16.485 19.8692C16.485 20.6116 15.8733 21.2132 15.1184 21.2132 14.3638 21.2132 13.752 20.6116 13.752 19.8692 13.752 19.1268 14.3638 18.5251 15.1184 18.5251 15.8733 18.5251 16.485 19.1268 16.485 19.8692zM23.3271 19.8692C23.3271 20.6116 22.7153 21.2132 21.9606 21.2132 21.2058 21.2132 20.594 20.6116 20.594 19.8692 20.594 19.1268 21.2058 18.5251 21.9606 18.5251 22.7153 18.5251 23.3271 19.1268 23.3271 19.8692z"/>
    <path fill="#3EE2F7" d="M17.2009,22.8528 C17.2257,23.5738 17.826,24.1511 18.5651,24.1511 C19.3041,24.1511 19.9046,23.5738 19.9293,22.8528 L17.2009,22.8528 Z"/>
  </g>
</svg>
